#!OML:ASF H:\ManfredObstacles\Project 1\Capture day 2\Session 1\male.ASF
:FULLY-SPECIFIED
:DEGREES
701
root 1.32399 15.994 -16.6835 -171.526 0.885781 178.265
lowerback -8.86285 0.242215 -5.04543
upperback 0.626472 0.921496 -0.405956
thorax 5.56727 0.32576 2.5403
lowerneck -36.6997 0.00283296 0.402276
upperneck 37.2865 -2.58343 1.80366
head 21.2556 -1.03324 -0.0211255
rclavicle -7.10655e-015 1.17283e-014
rhumerus -38.0536 -25.7189 -72.9134
rradius 23.7179
rwrist 39.867
rhand -2.11637 -6.07011
rfingers 7.12502
rthumb 23.5618 -34.6468
lclavicle -7.10655e-015 1.17283e-014
lhumerus -29.2983 18.8612 78.3493
lradius 18.7833
lwrist -57.0109
lhand 2.64503 5.2045
lfingers 7.12502
lthumb 28.1213 33.116
rfemur -15.5485 6.27906 21.2108
rtibia 29.3696
rfoot -12.8177 -15.5799
rtoes -9.77308
lfemur -12.2327 -7.35998 -24.2464
ltibia 25.8759
lfoot -8.00096 19.8257
ltoes 7.32497
702
root 1.3223 15.9937 -16.6869 -171.527 0.865879 178.25
lowerback -8.85065 0.240814 -5.06482
upperback 0.600027 0.921109 -0.409776
thorax 5.53235 0.326782 2.54681
lowerneck -36.747 -0.0782833 0.220455
upperneck 37.3204 -2.66109 1.93589
head 21.2986 -1.06892 0.0564927
rclavicle -1.88845e-015 -9.93923e-016
rhumerus -38.1019 -25.7067 -72.8781
rradius 23.7273
rwrist 39.9295
rhand -2.03456 -6.0436
rfingers 7.12502
rthumb 23.6402 -34.6102
lclavicle -1.88845e-015 -9.93923e-016
lhumerus -29.3953 18.8974 78.3056
lradius 18.7708
lwrist -57.0019
lhand 2.63594 5.24415
lfingers 7.12502
lthumb 28.1126 33.157
rfemur -15.5156 6.26664 21.1942
rtibia 29.3545
rfoot -12.8589 -15.5975
rtoes -9.96525
lfemur -12.2266 -7.41758 -24.2709
ltibia 25.8978
lfoot -7.98714 19.8679
ltoes 7.26086
703
root 1.32048 15.9939 -16.6899 -171.519 0.861337 178.282
lowerback -8.8677 0.245136 -5.03019
upperback 0.58569 0.923359 -0.4025
thorax 5.52699 0.329201 2.53541
lowerneck -36.654 -0.083412 0.202473
upperneck 37.3691 -2.68553 1.95114
head 21.3084 -1.08454 0.0587514
rclavicle -1.66482e-015 -7.95139e-015
rhumerus -38.1158 -25.7319 -72.8615
rradius 23.7281
rwrist 39.8919
rhand -2.04061 -6.07432
rfingers 7.12502
rthumb 23.6344 -34.6416
lclavicle -1.66482e-015 -7.95139e-015
lhumerus -29.481 19.0042 78.2349
lradius 18.7334
lwrist -57.0913
lhand 2.54936 5.23333
lfingers 7.12502
lthumb 28.0299 33.1598
rfemur -15.503 6.28775 21.2221
rtibia 29.3365
rfoot -12.8707 -15.6083
rtoes -9.97876
lfemur -12.2305 -7.36575 -24.2445
ltibia 25.9119
lfoot -8.01721 19.8376
ltoes 7.25433
704
root 1.31828 15.9935 -16.6945 -171.511 0.862447 178.303
lowerback -8.92359 0.259567 -5.00954
upperback 0.593892 0.943648 -0.398524
thorax 5.56583 0.338507 2.53154
lowerneck -36.6416 -0.111889 0.151041
upperneck 37.4106 -2.71695 1.96947
head 21.335 -1.10365 0.0672462
rclavicle -1.14301e-015 -1.98785e-016
rhumerus -38.0974 -25.6863 -72.8883
rradius 23.7438
rwrist 39.825
rhand -1.99984 -6.07694
rfingers 7.12502
rthumb 23.6735 -34.6392
lclavicle -1.14301e-015 -1.98785e-016
lhumerus -29.4952 18.9418 78.2701
lradius 18.7451
lwrist -56.9469
lhand 2.56472 5.27377
lfingers 7.12502
lthumb 28.0445 33.1978
rfemur -15.4868 6.25646 21.2375
rtibia 29.3239
rfoot -12.8538 -15.6023
rtoes -10.0367
lfemur -12.2258 -7.34391 -24.2335
ltibia 25.9193
lfoot -8.05114 19.8304
ltoes 7.31792
705
root 1.31688 15.9942 -16.6983 -171.497 0.870777 178.302
lowerback -8.99502 0.266374 -5.02894
upperback 0.619378 0.959306 -0.392272
thorax 5.63157 0.343227 2.55236
lowerneck -36.6193 -0.155808 0.0777718
upperneck 37.3551 -2.7415 2.00361
head 21.2946 -1.11645 0.0917749
rclavicle -4.38569e-015 3.97569e-015
rhumerus -38.0261 -25.5943 -72.9627
rradius 23.7766
rwrist 39.6466
rhand -1.98836 -6.16916
rfingers 7.12502
rthumb 23.6846 -34.73
lclavicle -4.38569e-015 3.97569e-015
lhumerus -29.4875 18.9757 78.2706
lradius 18.7132
lwrist -57.0547
lhand 2.49946 5.20136
lfingers 7.12502
lthumb 27.9822 33.1356
rfemur -15.4828 6.25601 21.229
rtibia 29.3088
rfoot -12.8363 -15.5897
rtoes -9.86355
lfemur -12.224 -7.36319 -24.2438
ltibia 25.9282
lfoot -8.02579 19.8599
ltoes 7.22723
706
root 1.31467 15.9935 -16.7018 -171.494 0.869768 178.316
lowerback -9.00488 0.272315 -5.02226
upperback 0.582873 0.965656 -0.378485
thorax 5.59797 0.34809 2.5638
lowerneck -36.4703 -0.191535 -0.0358598
upperneck 37.3788 -2.79144 2.10397
head 21.2779 -1.14386 0.1477
rclavicle -4.36084e-015 3.97569e-015
rhumerus -38.0809 -25.6143 -72.8951
rradius 23.7456
rwrist 39.7269
rhand -2.01893 -6.18079
rfingers 7.12502
rthumb 23.6552 -34.7454
lclavicle -4.36084e-015 3.97569e-015
lhumerus -29.6164 19.0116 78.235
lradius 18.7279
lwrist -57.1597
lhand 2.50289 5.17457
lfingers 7.12502
lthumb 27.9854 33.1083
rfemur -15.4679 6.26023 21.2376
rtibia 29.3054
rfoot -12.8706 -15.5897
rtoes -10.0105
lfemur -12.2094 -7.36418 -24.2381
ltibia 25.925
lfoot -8.01658 19.8623
ltoes 7.20875
707
root 1.31325 15.9943 -16.7051 -171.478 0.868453 178.329
lowerback -9.03084 0.260087 -5.02962
upperback 0.583355 0.951061 -0.367804
thorax 5.61408 0.340043 2.57758
lowerneck -36.3754 -0.165658 -0.075612
upperneck 37.4347 -2.78197 2.17274
head 21.2937 -1.14267 0.190992
rclavicle -3.52843e-015 1.51076e-014
rhumerus -38.023 -25.5545 -72.9412
rradius 23.7183
rwrist 39.6117
rhand -2.08728 -6.18983
rfingers 7.12502
rthumb 23.5897 -34.7629
lclavicle -3.52843e-015 1.51076e-014
lhumerus -29.661 19.0982 78.2012
lradius 18.73
lwrist -57.2605
lhand 2.47311 5.14393
lfingers 7.12502
lthumb 27.957 33.0823
rfemur -15.4675 6.28056 21.2424
rtibia 29.3063
rfoot -12.8716 -15.6003
rtoes -9.89105
lfemur -12.2113 -7.37418 -24.2294
ltibia 25.9141
lfoot -7.99198 19.8701
ltoes 7.20479
708
root 1.31148 15.9938 -16.7088 -171.472 0.86281 178.305
lowerback -9.07224 0.260751 -5.05681
upperback 0.605638 0.958262 -0.371145
thorax 5.66019 0.341171 2.59114
lowerneck -36.4656 -0.175725 -0.0986501
upperneck 37.5435 -2.81395 2.19137
head 21.3924 -1.1573 0.194147
rclavicle 9.31803e-016 1.64991e-014
rhumerus -37.946 -25.476 -73.0292
rradius 23.7631
rwrist 39.4373
rhand -2.13971 -6.16407
rfingers 7.12502
rthumb 23.5394 -34.7436
lclavicle 9.31803e-016 1.64991e-014
lhumerus -29.6289 19.0366 78.2704
lradius 18.76
lwrist -57.1314
lhand 2.52215 5.18128
lfingers 7.12502
lthumb 28.0038 33.112
rfemur -15.4592 6.24443 21.2125
rtibia 29.3078
rfoot -12.9 -15.5967
rtoes -10.0831
lfemur -12.1989 -7.36764 -24.2665
ltibia 25.9104
lfoot -7.99393 19.874
ltoes 7.13546
709
root 1.31021 15.9943 -16.7118 -171.478 0.845831 178.328
lowerback -9.08437 0.271302 -5.0398
upperback 0.631575 0.970956 -0.366638
thorax 5.69353 0.346172 2.58838
lowerneck -36.4981 -0.188794 -0.0771127
upperneck 37.4898 -2.81606 2.16098
head 21.3631 -1.155 0.175494
rclavicle 1.0461e-014 -1.11319e-014
rhumerus -37.9205 -25.5078 -73.0458
rradius 23.8185
rwrist 39.4486
rhand -2.17158 -6.21469
rfingers 7.12502
rthumb 23.5088 -34.7982
lclavicle 1.0461e-014 -1.11319e-014
lhumerus -29.5667 19.1845 78.251
lradius 18.693
lwrist -57.3076
lhand 2.55518 5.15972
lfingers 7.12502
lthumb 28.0354 33.0853
rfemur -15.4427 6.2434 21.2344
rtibia 29.3078
rfoot -12.928 -15.5929
rtoes -10.0832
lfemur -12.1811 -7.39505 -24.2488
ltibia 25.907
lfoot -7.98617 19.8892
ltoes 7.17108
710
root 1.30871 15.9946 -16.7144 -171.474 0.840056 178.322
lowerback -9.08968 0.25748 -5.05531
upperback 0.627612 0.955067 -0.371054
thorax 5.69355 0.338176 2.59038
lowerneck -36.5112 -0.190625 -0.0878868
upperneck 37.5497 -2.84519 2.19442
head 21.4092 -1.16512 0.185331
rclavicle 3.03147e-015 8.74653e-015
rhumerus -37.9037 -25.4303 -73.1211
rradius 23.8964
rwrist 39.3572
rhand -2.15619 -6.17935
rfingers 7.12502
rthumb 23.5236 -34.7609
lclavicle 3.03147e-015 8.74653e-015
lhumerus -29.6094 19.0966 78.2551
lradius 18.7838
lwrist -57.3443
lhand 2.7329 5.10528
lfingers 7.12502
lthumb 28.2053 33.0029
rfemur -15.4375 6.21863 21.2269
rtibia 29.3117
rfoot -12.9 -15.6074
rtoes -10.1047
lfemur -12.1757 -7.39811 -24.261
ltibia 25.9031
lfoot -8.0142 19.8778
ltoes 7.21367
711
root 1.30719 15.9938 -16.7166 -171.475 0.823796 178.338
lowerback -9.05241 0.261248 -5.03991
upperback 0.582411 0.954918 -0.364147
thorax 5.6248 0.341359 2.58805
lowerneck -36.4713 -0.210911 -0.146719
upperneck 37.5949 -2.86243 2.21359
head 21.4313 -1.18167 0.199251
rclavicle -8.85834e-015 -3.97569e-016
rhumerus -37.9502 -25.3794 -73.1075
rradius 23.9093
rwrist 39.2958
rhand -2.19037 -6.11256
rfingers 7.12502
rthumb 23.4908 -34.6983
lclavicle -8.85834e-015 -3.97569e-016
lhumerus -29.7067 19.1449 78.2264
lradius 18.8138
lwrist -57.5199
lhand 2.85385 5.09928
lfingers 7.12502
lthumb 28.3209 32.9778
rfemur -15.4194 6.23998 21.2427
rtibia 29.3081
rfoot -12.9088 -15.6336
rtoes -10.1386
lfemur -12.1666 -7.43654 -24.2495
ltibia 25.9108
lfoot -8.00262 19.9095
ltoes 7.15635
